# xmcd
#
# Track frame offsets:
#	150
#	15563
#	32571
#	48600
#	66946
#	85794
#	105011
#	121457
#	141865
#	158900
#	174655
#	194477
#	211206
#	224169
#	242205
#	259021
#	277852
#	294764
#
# Disc length: 4209 seconds
#
# Revision: 1
# Processed by: cddbd v1.4PL0 Copyright (c) Steve Scherf et al.
# Submitted via: audiograbber 1.81.03
#
DISCID=04106f12
DTITLE=Kenny Rogers - The Ultimate Collection 1958-1998
DYEAR=1998
DGENRE=Country
TTITLE0=Daytime Friends
TTITLE1=Love Lifted Me
TTITLE2=Lucille (Remix)
TTITLE3=Something's Burning
TTITLE4=Islands In The Stream
TTITLE5=She Believes In Me
TTITLE6=You Decorated My Life
TTITLE7=Coward Of The County
TTITLE8=Lady
TTITLE9=The Gambler
TTITLE10=What About Me
TTITLE11=Crazy
TTITLE12=Ruby Don't Take Your Love To Town
TTITLE13=This Woman
TTITLE14=Don't Fall In Love With A Dreamer
TTITLE15=Buried Treasure
TTITLE16=Eyes That See In The Dark
TTITLE17=You And I
EXTD=
EXTT0=
EXTT1=
EXTT2=
EXTT3=
EXTT4=
EXTT5=
EXTT6=
EXTT7=
EXTT8=
EXTT9=
EXTT10=
EXTT11=
EXTT12=
EXTT13=
EXTT14=
EXTT15=
EXTT16=
EXTT17=
PLAYORDER=
